<svg version="1.1" id="Layer_1" xmlns="http://www.w3.org/2000/svg" xmlns:xlink="http://www.w3.org/1999/xlink" x="0px" y="0px"
	 width="100%" viewBox="0 0 500 500" enable-background="new 0 0 500 500" xml:space="preserve">
<path fill="#FB6518" opacity="1.000000" stroke="none" 
	d="
M292.000000,501.000000 
	C194.666687,501.000000 97.833382,501.000000 1.000052,501.000000 
	C1.000035,334.333405 1.000035,167.666794 1.000017,1.000141 
	C167.666565,1.000094 334.333130,1.000094 500.999756,1.000047 
	C500.999847,167.666519 500.999847,334.333038 500.999939,500.999786 
	C431.500000,501.000000 362.000000,501.000000 292.000000,501.000000 
M461.847565,324.358215 
	C462.892609,315.599762 464.222870,306.864380 464.932892,298.078857 
	C467.888824,261.503876 465.591522,225.197449 458.994049,189.126434 
	C449.231506,135.750580 430.093292,85.816406 403.777557,38.519512 
	C403.151337,37.394028 401.736786,36.024185 400.627838,35.966743 
	C395.420837,35.697021 390.192139,35.846786 384.271759,35.846786 
	C385.346466,38.385799 386.000549,40.053047 386.747528,41.677567 
	C400.254272,71.052490 411.020660,101.394768 419.541901,132.587692 
	C437.017609,196.559631 444.258209,261.258667 435.066864,327.376617 
	C428.143219,377.181549 413.163330,424.250977 388.892822,468.326508 
	C387.989929,469.966187 387.178925,471.656433 386.059906,473.840759 
	C392.981995,473.840759 398.984467,474.029022 404.960541,473.714966 
	C406.553101,473.631256 408.834015,472.386444 409.497009,471.035706 
	C418.138306,453.430695 427.159332,435.973572 434.872162,417.960083 
	C447.613220,388.203064 456.522217,357.220520 461.847565,324.358215 
M51.954544,375.622711 
	C61.747368,408.605194 75.524666,439.906647 91.951958,470.074524 
	C92.780846,471.596741 94.519112,473.576721 95.935661,473.662384 
	C102.337463,474.049652 108.775871,473.831665 115.852715,473.831665 
	C111.344849,465.079987 106.952057,457.100220 103.048393,448.887970 
	C64.882866,368.598022 55.079269,284.279877 68.468796,197.008743 
	C76.783554,142.814316 92.219078,90.599129 115.656425,40.887604 
	C116.336990,39.444092 116.826912,37.910698 117.635674,35.826656 
	C112.568840,35.826656 108.240036,36.077305 103.956100,35.746590 
	C100.586761,35.486488 99.005455,36.879845 97.453537,39.704819 
	C62.597507,103.153389 40.831486,170.518570 36.451828,243.086945 
	C33.747288,287.899536 38.673351,331.852722 51.954544,375.622711 
M250.056152,363.555878 
	C243.493500,370.188232 236.671097,376.586639 230.433563,383.511810 
	C222.532349,392.284210 214.721878,401.192841 207.590164,410.587677 
	C201.181702,419.029755 198.205368,429.082275 196.707352,439.796753 
	C231.403442,439.796753 265.671600,439.796753 300.177979,439.796753 
	C300.177979,433.828186 300.177979,428.067749 300.177979,421.874664 
	C275.163910,421.874664 250.421753,421.874664 224.496048,421.874664 
	C226.925705,417.842743 228.423294,414.248871 230.869797,411.499237 
	C239.274185,402.053284 247.948608,392.844116 256.639008,383.657196 
	C264.645752,375.192963 273.168274,367.188721 280.799408,358.404816 
	C288.914886,349.063385 295.423828,338.625519 298.512390,326.351257 
	C304.927521,300.856934 294.606842,277.376678 272.634094,267.800903 
	C238.916779,253.106842 202.594254,276.675842 201.731415,314.256012 
	C208.404343,314.955780 215.111679,315.659149 221.356033,316.313965 
	C223.371948,309.813934 224.678040,303.738159 227.109741,298.152405 
	C232.083878,286.726624 241.896957,281.237488 254.409561,282.065643 
	C265.544189,282.802612 274.540771,289.909973 278.020752,301.281342 
	C282.173767,314.851929 279.135559,327.569885 271.210876,338.731140 
	C265.075928,347.371643 257.493286,354.984253 250.056152,363.555878 
M289.545868,122.097061 
	C299.116669,104.167793 308.687439,86.238525 318.706635,67.469269 
	C311.190643,67.469269 304.736786,67.652130 298.300964,67.391151 
	C295.142700,67.263084 293.591370,68.444305 292.230865,71.182579 
	C279.071014,97.669052 265.783691,124.092186 252.525070,150.529556 
	C251.890594,151.794662 251.184265,153.023727 250.405930,154.464859 
	C249.829742,153.844009 249.400970,153.549377 249.200684,153.142319 
	C235.778839,125.863441 222.388412,98.569077 208.932510,71.307037 
	C208.247070,69.918320 207.049255,67.759018 206.026474,67.722168 
	C197.838181,67.427177 189.634598,67.557343 180.858566,67.557343 
	C182.176361,70.088722 183.002243,71.716225 183.863998,73.324524 
	C201.282608,105.833847 218.746140,138.319305 236.047150,170.891068 
	C237.381073,173.402405 238.179382,176.512802 238.205002,179.353973 
	C238.386673,199.506927 238.301788,219.662262 238.301849,239.816849 
	C238.301865,241.722565 238.301865,243.628281 238.301865,245.526367 
	C246.159042,245.526367 253.095093,245.526367 260.662354,245.526367 
	C260.662354,243.487152 260.662323,241.699692 260.662354,239.912216 
	C260.662689,220.090775 260.585785,200.268661 260.754791,180.448654 
	C260.777588,177.771408 261.558014,174.855682 262.799164,172.473145 
	C271.468872,155.830978 280.352264,139.300156 289.545868,122.097061 
z"/>
<path fill="#FFFDFD" opacity="1.000000" stroke="none" 
	d="
M461.765442,324.785706 
	C456.522217,357.220520 447.613220,388.203064 434.872162,417.960083 
	C427.159332,435.973572 418.138306,453.430695 409.497009,471.035706 
	C408.834015,472.386444 406.553101,473.631256 404.960541,473.714966 
	C398.984467,474.029022 392.981995,473.840759 386.059906,473.840759 
	C387.178925,471.656433 387.989929,469.966187 388.892822,468.326508 
	C413.163330,424.250977 428.143219,377.181549 435.066864,327.376617 
	C444.258209,261.258667 437.017609,196.559631 419.541901,132.587692 
	C411.020660,101.394768 400.254272,71.052490 386.747528,41.677567 
	C386.000549,40.053047 385.346466,38.385799 384.271759,35.846786 
	C390.192139,35.846786 395.420837,35.697021 400.627838,35.966743 
	C401.736786,36.024185 403.151337,37.394028 403.777557,38.519512 
	C430.093292,85.816406 449.231506,135.750580 458.994049,189.126434 
	C465.591522,225.197449 467.888824,261.503876 464.932892,298.078857 
	C464.222870,306.864380 462.892609,315.599762 461.765442,324.785706 
z"/>
<path fill="#FFFDFD" opacity="1.000000" stroke="none" 
	d="
M51.848679,375.235229 
	C38.673351,331.852722 33.747288,287.899536 36.451828,243.086945 
	C40.831486,170.518570 62.597507,103.153389 97.453537,39.704819 
	C99.005455,36.879845 100.586761,35.486488 103.956100,35.746590 
	C108.240036,36.077305 112.568840,35.826656 117.635674,35.826656 
	C116.826912,37.910698 116.336990,39.444092 115.656425,40.887604 
	C92.219078,90.599129 76.783554,142.814316 68.468796,197.008743 
	C55.079269,284.279877 64.882866,368.598022 103.048393,448.887970 
	C106.952057,457.100220 111.344849,465.079987 115.852715,473.831665 
	C108.775871,473.831665 102.337463,474.049652 95.935661,473.662384 
	C94.519112,473.576721 92.780846,471.596741 91.951958,470.074524 
	C75.524666,439.906647 61.747368,408.605194 51.848679,375.235229 
z"/>
<path fill="#FFFDFD" opacity="1.000000" stroke="none" 
	d="
M250.305176,363.304871 
	C257.493286,354.984253 265.075928,347.371643 271.210876,338.731140 
	C279.135559,327.569885 282.173767,314.851929 278.020752,301.281342 
	C274.540771,289.909973 265.544189,282.802612 254.409561,282.065643 
	C241.896957,281.237488 232.083878,286.726624 227.109741,298.152405 
	C224.678040,303.738159 223.371948,309.813934 221.356033,316.313965 
	C215.111679,315.659149 208.404343,314.955780 201.731415,314.256012 
	C202.594254,276.675842 238.916779,253.106842 272.634094,267.800903 
	C294.606842,277.376678 304.927521,300.856934 298.512390,326.351257 
	C295.423828,338.625519 288.914886,349.063385 280.799408,358.404816 
	C273.168274,367.188721 264.645752,375.192963 256.639008,383.657196 
	C247.948608,392.844116 239.274185,402.053284 230.869797,411.499237 
	C228.423294,414.248871 226.925705,417.842743 224.496048,421.874664 
	C250.421753,421.874664 275.163910,421.874664 300.177979,421.874664 
	C300.177979,428.067749 300.177979,433.828186 300.177979,439.796753 
	C265.671600,439.796753 231.403442,439.796753 196.707352,439.796753 
	C198.205368,429.082275 201.181702,419.029755 207.590164,410.587677 
	C214.721878,401.192841 222.532349,392.284210 230.433563,383.511810 
	C236.671097,376.586639 243.493500,370.188232 250.305176,363.304871 
z"/>
<path fill="#FFFCFA" opacity="1.000000" stroke="none" 
	d="
M289.356567,122.415367 
	C280.352264,139.300156 271.468872,155.830978 262.799164,172.473145 
	C261.558014,174.855682 260.777588,177.771408 260.754791,180.448654 
	C260.585785,200.268661 260.662689,220.090775 260.662354,239.912216 
	C260.662323,241.699692 260.662354,243.487152 260.662354,245.526367 
	C253.095093,245.526367 246.159042,245.526367 238.301865,245.526367 
	C238.301865,243.628281 238.301865,241.722565 238.301849,239.816849 
	C238.301788,219.662262 238.386673,199.506927 238.205002,179.353973 
	C238.179382,176.512802 237.381073,173.402405 236.047150,170.891068 
	C218.746140,138.319305 201.282608,105.833847 183.863998,73.324524 
	C183.002243,71.716225 182.176361,70.088722 180.858566,67.557343 
	C189.634598,67.557343 197.838181,67.427177 206.026474,67.722168 
	C207.049255,67.759018 208.247070,69.918320 208.932510,71.307037 
	C222.388412,98.569077 235.778839,125.863441 249.200684,153.142319 
	C249.400970,153.549377 249.829742,153.844009 250.405930,154.464859 
	C251.184265,153.023727 251.890594,151.794662 252.525070,150.529556 
	C265.783691,124.092186 279.071014,97.669052 292.230865,71.182579 
	C293.591370,68.444305 295.142700,67.263084 298.300964,67.391151 
	C304.736786,67.652130 311.190643,67.469269 318.706635,67.469269 
	C308.687439,86.238525 299.116669,104.167793 289.356567,122.415367 
z"/>
</svg>